PathFileType	4	(X/Y/Z)	T1_P2_NoVision_Movement_3_0-732.trc
DataRate	CameraRate	NumFrames	NumMarkers	Units	OrigDataRate	OrigDataStartFrame	OrigNumFrames
60	60	5	27	m	60	0	732
Frame#	Time	RHip			RKnee			RAnkle			RBigToe			RSmallToe			RHeel			LHip			LKnee			LAnkle			LBigToe			LSmallToe			LHeel			Neck			Head			Nose			RShoulder			RElbow			RWrist			RThumb			RIndex			RPinky			LShoulder			LElbow			LWrist			LThumb			LIndex			LPinky		
		X1	Y1	Z1	X2	Y2	Z2	X3	Y3	Z3	X4	Y4	Z4	X5	Y5	Z5	X6	Y6	Z6	X7	Y7	Z7	X8	Y8	Z8	X9	Y9	Z9	X10	Y10	Z10	X11	Y11	Z11	X12	Y12	Z12	X13	Y13	Z13	X14	Y14	Z14	X15	Y15	Z15	X16	Y16	Z16	X17	Y17	Z17	X18	Y18	Z18	X19	Y19	Z19	X20	Y20	Z20	X21	Y21	Z21	X22	Y22	Z22	X23	Y23	Z23	X24	Y24	Z24	X25	Y25	Z25	X26	Y26	Z26	X27	Y27	Z27
1	0.0166666666666666	466.463254698482	3603.4312839608992	553.4750997577974	865.7397837014175	3638.213892507245	567.2618912489654	1241.4301372274851	3701.914334818121	623.3959748468328	1325.146140490222	3606.174499256727	606.7292282865279	1301.5635611824162	3617.5407629456895	543.055019364203	1262.9496833158187	3686.54999984057	627.7750273815752	469.3225067534013	3510.703188152502	743.285691707232	878.2553524845357	3532.366920443772	745.2278045162609	1231.7593283352805	3591.1903439194252	730.2621574255729	1331.8521597864103	3563.2167599492677	685.6205221046075	1285.9706698333296	3479.740533427183	718.1862000649112	1267.3585852255458	3613.847544322516	723.433742499171	-116.95090216632096	3546.9249190702203	663.1457109419598	-373.41746319488806	3496.2824908863904	636.4541881186756	-227.92859412705474	3384.64194967288	591.3228343195502	-35.384765075733895	3642.983026163035	545.597873051077	216.0051203010868	3727.1855965640725	490.03470827032663	441.04666041602707	3634.739260367446	408.81136766685154	559.6909322802394	3553.525466630024	408.846249440652	579.6754372328548	3560.4483869843298	394.996603797033	587.1839533559186	3658.897110150578	399.92971598776046	-17.70098886635678	3517.1652381059466	847.2358607302792	237.66520800043708	3449.2138402964592	849.400951664109	488.9416029471778	3435.5718015740504	855.3099047857545	595.4680660665543	3424.2900370852153	816.0146049417166	596.9242220786888	3373.4815892787306	814.0748398627052	598.9638239148205	3376.934877738817	863.712361546523
2	0.0333333333333333	468.363699024096	3605.5101282259293	554.0402298964195	866.4716122812837	3638.7903508923578	567.3332457556238	1240.3024019347283	3701.3994254939953	623.4639557913682	1325.1922398521763	3612.525884877644	608.7849856024052	1304.639649264034	3625.71347578088	547.2939004505157	1265.9208984591132	3687.57284531796	628.702898424584	471.77342001881544	3508.420846934968	742.9448329034101	880.5514434958168	3529.33176725122	743.5315018822951	1233.946058685279	3594.454001105729	731.5844312439217	1333.8030517522725	3568.2948982340877	686.994384864305	1284.2447195083764	3483.999489990026	717.8326585144148	1269.9084539494809	3615.6560443832386	723.975388132944	-116.84904825084469	3546.8929968058296	662.8303787213566	-374.43280013622865	3495.499063642821	636.0881910817209	-227.91940560351637	3385.347126646532	594.48172357724	-35.44726573953354	3643.245600394286	545.704870380277	214.85361754851516	3743.4959099970747	494.50809676240107	441.7380273129613	3637.458658366006	412.1546235833545	559.8023607553965	3555.2015156763277	412.50160168088365	579.2843996162162	3560.2957067902717	394.71410529553	585.733738190182	3657.0639667226087	399.3580267054131	-17.687591014667728	3517.1729100362345	847.2386399824783	240.21898659303358	3450.099984523706	849.9919728246499	488.90403723552095	3435.582379879858	855.3157889601553	596.6103948153032	3425.1417419095355	816.7908912806336	599.4021257706875	3386.5724218124897	819.1481947409645	599.7478267748951	3381.1185311413046	864.6948656249514
3	0.05	470.33338030833715	3606.909051704752	554.5025739610103	867.8392190979182	3640.9512255758737	568.7547271997269	1240.4008167833742	3701.5361295608186	623.5976923678832	1323.538255663292	3614.285628330083	608.9556337242266	1304.5529917855697	3627.4241860558745	548.3621950351663	1267.3288955730961	3688.033677819264	629.1082454169249	473.83663309815677	3509.6249410135274	743.5831260432841	882.0353863572491	3527.504921768704	742.5099269697286	1236.2509430245527	3596.7187344880376	732.3501256309834	1334.0132811534193	3568.817581222316	687.1036340899966	1282.4756318353677	3484.097281228383	717.0096477430966	1272.3050977932514	3617.216445880886	724.3850579720545	-116.78156168964586	3546.856804290658	662.7576335694367	-374.5274966317218	3495.508152042602	636.0907163377109	-227.96351723956747	3387.254277791094	596.6501321355806	-35.51843086748015	3643.3890650909316	545.7688680580005	214.6501572678319	3753.7647599927695	497.361116124366	442.0932580850971	3636.266112833699	413.5451522467063	559.1836318973019	3554.1509746546017	413.5766220831868	578.4509994877473	3559.6743333446525	394.3355747830551	584.651997962592	3655.4991643956864	398.8690641164456	-17.669427235818286	3517.2209521889627	847.2612228032121	241.7576733561214	3450.658873351334	850.3642786482573	488.86316618308854	3435.5951407165194	855.3325976616838	596.8501485809693	3425.349736763247	817.0628618497623	600.4476327601772	3392.3613154215955	821.4147104130424	599.6752638709424	3381.0380959646304	864.2332854547226
4	0.0666666666666666	472.17459875908963	3606.9765575479532	554.5539464033316	869.5582080872699	3644.719752334669	571.7780326726964	1241.0999769805753	3701.9770393820195	623.7236167953909	1321.742304280733	3613.9586809353555	607.8808373610182	1302.2689538637544	3624.904669589987	546.5838592707566	1267.4002111238356	3687.980743055272	629.0381376875534	475.44301492875616	3512.487805699865	744.5382710504373	882.8331167926499	3527.036523612159	742.3043098487105	1237.9414665252707	3597.1991958098283	732.2889636784408	1332.995828824464	3566.1193863019644	686.3586647994841	1281.5234510523055	3481.4213574440228	716.4192321975554	1273.9596711153242	3618.146813493027	724.5632594400204	-116.7600696361944	3546.6800610645414	663.263179466784	-373.98377364068807	3496.0289588463575	636.325825565091	-228.02441615112429	3389.154584668669	597.2242854454685	-35.46852618063371	3643.404708397668	545.7890485755673	215.2882278423572	3757.3285082214015	498.39820128288716	442.2686266222927	3632.6460399469033	413.21373655790967	559.1988251173652	3552.751784546095	413.9738955071347	577.2335193158438	3557.5400655517333	393.660913102157	584.3654821452237	3653.363385975109	398.34752705163373	-17.657574085614243	3517.302469022515	847.3037757335945	242.1937333427506	3450.851931603606	850.4976396613664	488.81030213134625	3435.5946567680717	855.3447179373725	596.3238917531439	3425.1034666052656	816.9812672315329	599.7197514855153	3389.231192514023	820.2725065576983	599.0385934693466	3378.1235078482587	863.0943928177569
5	0.0833333333333333	473.7332795548223	3605.610151961855	553.9818806350462	870.9446192609194	3648.123323208166	574.7214174911187	1240.9742227973645	3701.9178220973417	623.7072673892463	1322.3433785899156	3615.4867192371753	607.160140740508	1301.0511788413423	3625.05388809332	545.2424583836164	1266.9764892029648	3687.8289143131688	628.8777328975002	476.88189279175106	3513.5730602986587	744.7218497927241	883.3720872688637	3527.213798594743	742.555686855957	1238.0395762662745	3596.098713481347	731.6998348893682	1332.097232636472	3563.660072142516	685.8514470082408	1281.730499958741	3479.2373157559086	716.6848452525992	1274.5944567662552	3618.388498066056	724.5488757345794	-116.75816756067476	3546.2345577032793	664.5536665577647	-373.5164221860317	3496.392427686319	636.487215028257	-228.05073851806043	3389.943143807016	596.6377227484539	-34.96709555050249	3643.4430728758184	545.8206401238392	216.2604253218276	3757.5246636802417	498.50086786532864	442.34531772380626	3630.0474879816848	412.5772436531863	561.3715182359218	3554.5426445427274	416.3956603832238	575.9786318353691	3553.013465437467	392.5147093346471	584.5325322861191	3649.1980363627026	397.4759178409643	-17.656323625265365	3517.4033858700523	847.3632777992007	242.09780009196595	3450.8338660071267	850.5028871200143	488.76085441271107	3435.553642807793	855.3269800194112	595.4363086630871	3425.151098777653	817.0976789685517	598.0794563379973	3381.5930943067688	817.4166883555288	598.5302864187098	3375.6944625418387	862.8968576732607
